<svg xmlns="http://www.w3.org/2000/svg" version="1.1" xmlns:xlink="http://www.w3.org/1999/xlink" xmlns:svgjs="http://svgjs.dev/svgjs" width="128" height="128" viewBox="0 0 128 128"><g transform="matrix(0.8046875,0,0,0.8046875,12.333870967741937,12.333870967741937)"><svg viewBox="0 0 155 155" data-background-color="#ffffff" preserveAspectRatio="xMidYMid meet" height="128" width="128" xmlns="http://www.w3.org/2000/svg" xmlns:xlink="http://www.w3.org/1999/xlink"><g id="tight-bounds" transform="matrix(1,0,0,1,0.25,0.25)"><svg viewBox="0 0 154.5 154.5" height="154.5" width="154.5"><g><svg></svg></g><g><svg viewBox="0 0 154.5 154.5" height="154.5" width="154.5"><g transform="matrix(1,0,0,1,52.23605367391305,47.746371)"><svg viewBox="0 0 50.02789265217391 59.00725799999999" height="59.00725799999999" width="50.02789265217391"><g><svg viewBox="0 0 50.02789265217391 59.00725799999999" height="59.00725799999999" width="50.02789265217391"><g><svg viewBox="0 0 50.02789265217391 59.00725799999999" height="59.00725799999999" width="50.02789265217391"><g id="textblocktransform"><svg viewBox="0 0 50.02789265217391 59.00725799999999" height="59.00725799999999" width="50.02789265217391" id="textblock"><g><svg viewBox="0 0 50.02789265217391 59.00725799999999" height="59.00725799999999" width="50.02789265217391"><g transform="matrix(1,0,0,1,0,0)"><svg width="50.02789265217391" viewBox="0.75 -34.5 29.25 34.5" height="59.00725799999999" data-palette-color="#0080ff"><path d="M24.8-34.5L30-34.5 19.7-1.4Q19.5-0.85 19-0.43 18.5 0 17.85 0L17.85 0 12.9 0Q12.2 0 11.7-0.43 11.2-0.85 11-1.4L11-1.4 0.75-34.5 5.95-34.5 13.75-7.6Q14-6.65 14.25-5.73 14.5-4.8 14.7-3.85L14.7-3.85 16.05-3.85Q16.25-4.8 16.5-5.75 16.75-6.7 17.05-7.65L17.05-7.65 24.8-34.5Z" opacity="1" transform="matrix(1,0,0,1,0,0)" fill="#0080ff" class="wordmark-text-0" data-fill-palette-color="primary" id="text-0"></path></svg></g></svg></g></svg></g></svg></g></svg></g></svg></g><g><path d="M51.042 33.816A25.014 25.014 0 0 1 103.458 33.816L98.137 33.816A19.693 19.693 0 0 0 56.363 33.816L51.042 33.816M51.042 120.684A25.014 25.014 0 0 0 103.458 120.684L98.137 120.684A19.693 19.693 0 0 1 56.363 120.684L51.042 120.684" fill="#0080ff" stroke="transparent" data-fill-palette-color="tertiary"></path></g></svg></g><defs></defs></svg><rect width="154.5" height="154.5" fill="none" stroke="none" visibility="hidden"></rect></g></svg></g></svg>