<svg xmlns="http://www.w3.org/2000/svg" version="1.1" xmlns:xlink="http://www.w3.org/1999/xlink" xmlns:svgjs="http://svgjs.dev/svgjs" width="1500" height="935" viewBox="0 0 1500 935"><g transform="matrix(1,0,0,1,-0.9090909090909918,0.3785425101214628)"><svg viewBox="0 0 396 247" data-background-color="#ffffff" preserveAspectRatio="xMidYMid meet" height="935" width="1500" xmlns="http://www.w3.org/2000/svg" xmlns:xlink="http://www.w3.org/1999/xlink"><g id="tight-bounds" transform="matrix(1,0,0,1,0.2400000000000091,-0.09999999999999432)"><svg viewBox="0 0 395.52 247.2" height="247.2" width="395.52"><g><svg></svg></g><g><svg viewBox="0 0 395.52 247.2" height="247.2" width="395.52"><g transform="matrix(1,0,0,1,100.95789248583127,47.215199999999996)"><svg viewBox="0 0 193.60421502833745 152.7696" height="152.7696" width="193.60421502833745"><g><svg viewBox="0 0 193.60421502833745 152.7696" height="152.7696" width="193.60421502833745"><g><svg viewBox="0 0 244.43135999999998 192.87638489270685" height="152.7696" width="193.60421502833745"><g><svg viewBox="0 0 244.43135999999998 192.87638489270685" height="192.87638489270685" width="244.43135999999998"><g id="textblocktransform"><svg viewBox="0 0 244.43135999999998 192.87638489270685" height="192.87638489270685" width="244.43135999999998" id="textblock"><g><svg viewBox="0 0 244.43135999999998 144.67190570702795" height="144.67190570702795" width="244.43135999999998"><g transform="matrix(1,0,0,1,0,0)"><svg width="244.43135999999998" viewBox="0.75 -34.95 59.05 34.95" height="144.67190570702795" data-palette-color="#0080ff"><path d="M24.8-34.5L30-34.5 19.7-1.4Q19.5-0.85 19-0.43 18.5 0 17.85 0L17.85 0 12.9 0Q12.2 0 11.7-0.43 11.2-0.85 11-1.4L11-1.4 0.75-34.5 5.95-34.5 13.75-7.6Q14-6.65 14.25-5.73 14.5-4.8 14.7-3.85L14.7-3.85 16.05-3.85Q16.25-4.8 16.5-5.75 16.75-6.7 17.05-7.65L17.05-7.65 24.8-34.5ZM47.1-34.95L47.1-34.95Q51.2-34.95 53.72-34.08 56.25-33.2 57.4-31.03 58.55-28.85 58.55-24.95L58.55-24.95Q58.55-22.2 57.9-20.35 57.25-18.5 55.87-17.45 54.5-16.4 52.15-16.1L52.15-16.1 52.15-15.85Q53-15.65 53.85-15.05 54.7-14.45 55.45-13.43 56.2-12.4 56.55-10.85L56.55-10.85 59.8 0 54.5 0 51.5-10.75Q50.9-12.65 49.85-13.45 48.8-14.25 47.1-14.25L47.1-14.25Q43.95-14.25 41.7-14.28 39.45-14.3 37.92-14.35 36.4-14.4 35.45-14.4L35.45-14.4 35.6-18.4 47-18.4Q49.45-18.45 50.85-18.98 52.25-19.5 52.87-20.85 53.5-22.2 53.5-24.65L53.5-24.65Q53.5-27.1 52.87-28.43 52.25-29.75 50.85-30.28 49.45-30.8 47-30.8L47-30.8Q42.8-30.8 39.75-30.75 36.7-30.7 35.65-30.7L35.65-30.7 34.95-34.5Q36.85-34.7 38.55-34.8 40.25-34.9 42.27-34.93 44.3-34.95 47.1-34.95ZM34.95-34.5L39.9-34.5 39.9 0 34.95 0 34.95-34.5Z" opacity="1" transform="matrix(1,0,0,1,0,0)" fill="#0080ff" class="wordmark-text-0" data-fill-palette-color="primary" id="text-0"></path></svg></g></svg></g><g transform="matrix(1,0,0,1,36.664704,178.8254705187203)"><svg viewBox="0 0 171.10195199999998 14.050914373986572" height="14.050914373986572" width="171.10195199999998"><g transform="matrix(1,0,0,1,0,0)"><svg width="171.10195199999998" viewBox="5.4 -37.1 573.5 47.1" height="14.050914373986572" data-palette-color="#0080ff"><path d="M20-35.3Q26.8-35.3 30.73-31.33 34.65-27.35 34.65-19.85L34.65-19.85 34.65 0 31 0 31-10.3 9-10.3 9 0 5.4 0 5.4-19.85Q5.4-27.35 9.33-31.33 13.25-35.3 20-35.3L20-35.3ZM9-13.5L31-13.5 31-20.2Q31-26.05 28.1-29.03 25.2-32 20-32L20-32Q14.8-32 11.9-29.03 9-26.05 9-20.2L9-20.2 9-13.5ZM52.4 0.25Q48.85 0.25 46.92-1.75 45-3.75 45-7.3L45-7.3 45-37.1 48.55-37.1 48.55-7.6Q48.55-5.25 49.65-4.03 50.75-2.8 52.95-2.8L52.95-2.8Q54.35-2.8 55.35-3.25L55.35-3.25 55.6-0.3Q54.05 0.25 52.4 0.25L52.4 0.25ZM97.45-26.3L101-26.3 101-11.75Q101-5.9 98.2-2.83 95.4 0.25 89.95 0.25L89.95 0.25Q86.5 0.25 84.17-1.07 81.85-2.4 80.6-5.3L80.6-5.3Q79.35-2.45 77.05-1.1 74.75 0.25 71.25 0.25L71.25 0.25Q65.8 0.25 63-2.83 60.2-5.9 60.2-11.75L60.2-11.75 60.2-26.3 63.75-26.3 63.75-12.05Q63.75-7.4 65.55-5.18 67.35-2.95 71.25-2.95L71.25-2.95Q75.1-2.95 76.97-5.2 78.85-7.45 78.85-12.15L78.85-12.15 78.85-26.3 82.4-26.3 82.4-12.15Q82.4-7.45 84.25-5.2 86.1-2.95 90-2.95L90-2.95Q93.8-2.95 95.62-5.18 97.45-7.4 97.45-12.05L97.45-12.05 97.45-26.3ZM131.09-26.3L134.64-26.3 134.64 0 131.24 0 131.24-5.2Q129.64-2.55 127.02-1.15 124.39 0.25 121.09 0.25L121.09 0.25Q117.39 0.25 114.39-1.45 111.39-3.15 109.69-6.2 107.99-9.25 107.99-13.15L107.99-13.15Q107.99-17.05 109.69-20.1 111.39-23.15 114.39-24.83 117.39-26.5 121.09-26.5L121.09-26.5Q124.29-26.5 126.87-25.18 129.44-23.85 131.09-21.3L131.09-21.3 131.09-26.3ZM121.39-2.9Q124.14-2.9 126.37-4.17 128.59-5.45 129.87-7.8 131.14-10.15 131.14-13.15L131.14-13.15Q131.14-16.15 129.87-18.5 128.59-20.85 126.37-22.13 124.14-23.4 121.39-23.4L121.39-23.4Q118.59-23.4 116.37-22.13 114.14-20.85 112.87-18.5 111.59-16.15 111.59-13.15L111.59-13.15Q111.59-10.15 112.87-7.8 114.14-5.45 116.37-4.17 118.59-2.9 121.39-2.9L121.39-2.9ZM164.69-26.3L168.24-26.3 168.24-3.2Q168.24 3.5 165.19 6.73 162.14 9.95 155.99 9.95L155.99 9.95Q152.54 9.95 149.47 8.88 146.39 7.8 144.49 5.9L144.49 5.9 146.29 3.2Q147.99 4.9 150.49 5.85 152.99 6.8 155.84 6.8L155.84 6.8Q160.39 6.8 162.54 4.48 164.69 2.15 164.69-2.75L164.69-2.75 164.69-5.8Q163.29-3.5 160.87-2.25 158.44-1 155.39-1L155.39-1Q150.24-1 147.27-3.88 144.29-6.75 144.29-12.3L144.29-12.3 144.29-26.3 147.84-26.3 147.84-12.65Q147.84-8.5 149.89-6.35 151.94-4.2 155.74-4.2L155.74-4.2Q159.89-4.2 162.29-6.73 164.69-9.25 164.69-13.75L164.69-13.75 164.69-26.3ZM185.24 0.25Q182.04 0.25 179.11-0.68 176.19-1.6 174.54-3L174.54-3 176.14-5.8Q177.79-4.5 180.29-3.68 182.79-2.85 185.49-2.85L185.49-2.85Q189.09-2.85 190.81-3.98 192.54-5.1 192.54-7.15L192.54-7.15Q192.54-8.6 191.59-9.43 190.64-10.25 189.19-10.68 187.74-11.1 185.34-11.5L185.34-11.5Q182.14-12.1 180.19-12.73 178.24-13.35 176.86-14.85 175.49-16.35 175.49-19L175.49-19Q175.49-22.3 178.24-24.4 180.99-26.5 185.89-26.5L185.89-26.5Q188.44-26.5 190.99-25.83 193.54-25.15 195.19-24.05L195.19-24.05 193.64-21.2Q190.39-23.45 185.89-23.45L185.89-23.45Q182.49-23.45 180.76-22.25 179.04-21.05 179.04-19.1L179.04-19.1Q179.04-17.6 180.01-16.7 180.99-15.8 182.44-15.38 183.89-14.95 186.44-14.5L186.44-14.5Q189.59-13.9 191.49-13.3 193.39-12.7 194.74-11.25 196.09-9.8 196.09-7.25L196.09-7.25Q196.09-3.8 193.21-1.78 190.34 0.25 185.24 0.25L185.24 0.25ZM236.73-35.3Q243.43-35.3 248.71-32.52 253.98-29.75 256.93-24.73 259.88-19.7 259.88-13.25L259.88-13.25Q259.88-6.9 257.68-3.33 255.48 0.25 251.58 0.25L251.58 0.25Q249.13 0.25 247.61-1.2 246.08-2.65 245.93-5.2L245.93-5.2Q244.43-2.6 241.83-1.18 239.23 0.25 235.93 0.25L235.93 0.25Q232.43 0.25 229.61-1.43 226.78-3.1 225.16-6.05 223.53-9 223.53-12.7L223.53-12.7Q223.53-16.4 225.16-19.33 226.78-22.25 229.61-23.9 232.43-25.55 235.93-25.55L235.93-25.55Q239.13-25.55 241.71-24.18 244.28-22.8 245.83-20.3L245.83-20.3 245.83-25.35 249.08-25.35 249.08-6.4Q249.08-4.4 249.93-3.5 250.78-2.6 252.18-2.6L252.18-2.6Q254.53-2.6 255.91-5.4 257.28-8.2 257.28-13.2L257.28-13.2Q257.28-19 254.68-23.43 252.08-27.85 247.41-30.3 242.73-32.75 236.73-32.75L236.73-32.75Q230.68-32.75 226.01-30.23 221.33-27.7 218.73-23.13 216.13-18.55 216.13-12.7L216.13-12.7Q216.13-6.85 218.71-2.25 221.28 2.35 225.91 4.9 230.53 7.45 236.53 7.45L236.53 7.45Q238.88 7.45 241.46 6.9 244.03 6.35 246.13 5.25L246.13 5.25 246.98 7.7Q244.83 8.8 242.01 9.4 239.18 10 236.53 10L236.53 10Q229.73 10 224.48 7.1 219.23 4.2 216.31-0.98 213.38-6.15 213.38-12.7L213.38-12.7Q213.38-19.3 216.33-24.43 219.28-29.55 224.61-32.43 229.93-35.3 236.73-35.3L236.73-35.3ZM236.38-2.65Q239.08-2.65 241.23-3.9 243.38-5.15 244.63-7.43 245.88-9.7 245.88-12.7L245.88-12.7Q245.88-15.65 244.63-17.93 243.38-20.2 241.23-21.43 239.08-22.65 236.38-22.65L236.38-22.65Q233.63-22.65 231.46-21.4 229.28-20.15 228.06-17.9 226.83-15.65 226.83-12.7L226.83-12.7Q226.83-9.75 228.06-7.48 229.28-5.2 231.46-3.93 233.63-2.65 236.38-2.65L236.38-2.65ZM300.63-26.3L304.18-26.3 304.18-3.2Q304.18 3.5 301.13 6.73 298.08 9.95 291.93 9.95L291.93 9.95Q288.48 9.95 285.4 8.88 282.33 7.8 280.43 5.9L280.43 5.9 282.23 3.2Q283.93 4.9 286.43 5.85 288.93 6.8 291.78 6.8L291.78 6.8Q296.33 6.8 298.48 4.48 300.63 2.15 300.63-2.75L300.63-2.75 300.63-5.8Q299.23-3.5 296.8-2.25 294.38-1 291.33-1L291.33-1Q286.18-1 283.2-3.88 280.23-6.75 280.23-12.3L280.23-12.3 280.23-26.3 283.78-26.3 283.78-12.65Q283.78-8.5 285.83-6.35 287.88-4.2 291.68-4.2L291.68-4.2Q295.83-4.2 298.23-6.73 300.63-9.25 300.63-13.75L300.63-13.75 300.63-26.3ZM324.88 0.25Q321.08 0.25 318.03-1.48 314.98-3.2 313.23-6.25 311.48-9.3 311.48-13.15L311.48-13.15Q311.48-17 313.23-20.05 314.98-23.1 318.03-24.8 321.08-26.5 324.88-26.5L324.88-26.5Q328.68-26.5 331.73-24.8 334.78-23.1 336.5-20.05 338.23-17 338.23-13.15L338.23-13.15Q338.23-9.3 336.5-6.25 334.78-3.2 331.73-1.48 328.68 0.25 324.88 0.25L324.88 0.25ZM324.88-2.9Q327.68-2.9 329.9-4.17 332.13-5.45 333.38-7.8 334.63-10.15 334.63-13.15L334.63-13.15Q334.63-16.15 333.38-18.5 332.13-20.85 329.9-22.13 327.68-23.4 324.88-23.4L324.88-23.4Q322.08-23.4 319.85-22.13 317.63-20.85 316.35-18.5 315.08-16.15 315.08-13.15L315.08-13.15Q315.08-10.15 316.35-7.8 317.63-5.45 319.85-4.17 322.08-2.9 324.88-2.9L324.88-2.9ZM365.62-26.3L369.17-26.3 369.17 0 365.77 0 365.77-4.8Q364.37-2.4 361.92-1.07 359.47 0.25 356.32 0.25L356.32 0.25Q351.17 0.25 348.2-2.63 345.22-5.5 345.22-11.05L345.22-11.05 345.22-26.3 348.77-26.3 348.77-11.4Q348.77-7.25 350.82-5.1 352.87-2.95 356.67-2.95L356.67-2.95Q360.82-2.95 363.22-5.48 365.62-8 365.62-12.5L365.62-12.5 365.62-26.3ZM382.52-21.15Q383.77-23.8 386.25-25.15 388.72-26.5 392.37-26.5L392.37-26.5 392.37-23.05 391.52-23.1Q387.37-23.1 385.02-20.55 382.67-18 382.67-13.4L382.67-13.4 382.67 0 379.12 0 379.12-26.3 382.52-26.3 382.52-21.15ZM419.32 0.25Q416.12 0.25 413.19-0.68 410.27-1.6 408.62-3L408.62-3 410.22-5.8Q411.87-4.5 414.37-3.68 416.87-2.85 419.57-2.85L419.57-2.85Q423.17-2.85 424.89-3.98 426.62-5.1 426.62-7.15L426.62-7.15Q426.62-8.6 425.67-9.43 424.72-10.25 423.27-10.68 421.82-11.1 419.42-11.5L419.42-11.5Q416.22-12.1 414.27-12.73 412.32-13.35 410.94-14.85 409.57-16.35 409.57-19L409.57-19Q409.57-22.3 412.32-24.4 415.07-26.5 419.97-26.5L419.97-26.5Q422.52-26.5 425.07-25.83 427.62-25.15 429.27-24.05L429.27-24.05 427.72-21.2Q424.47-23.45 419.97-23.45L419.97-23.45Q416.57-23.45 414.84-22.25 413.12-21.05 413.12-19.1L413.12-19.1Q413.12-17.6 414.09-16.7 415.07-15.8 416.52-15.38 417.97-14.95 420.52-14.5L420.52-14.5Q423.67-13.9 425.57-13.3 427.47-12.7 428.82-11.25 430.17-9.8 430.17-7.25L430.17-7.25Q430.17-3.8 427.29-1.78 424.42 0.25 419.32 0.25L419.32 0.25ZM447.96-2.9Q450.41-2.9 452.49-3.78 454.56-4.65 456.01-6.35L456.01-6.35 458.01-4.05Q456.26-1.95 453.66-0.85 451.06 0.25 447.91 0.25L447.91 0.25Q443.86 0.25 440.71-1.48 437.56-3.2 435.81-6.25 434.06-9.3 434.06-13.15L434.06-13.15Q434.06-17 435.74-20.05 437.41-23.1 440.36-24.8 443.31-26.5 447.06-26.5L447.06-26.5Q450.56-26.5 453.39-24.9 456.21-23.3 457.89-20.45 459.56-17.6 459.66-13.95L459.66-13.95 438.06-9.75Q439.06-6.55 441.69-4.73 444.31-2.9 447.96-2.9L447.96-2.9ZM447.06-23.45Q444.31-23.45 442.14-22.18 439.96-20.9 438.74-18.63 437.51-16.35 437.51-13.4L437.51-13.4Q437.51-12.65 437.56-12.3L437.56-12.3 456.11-15.9Q455.51-19.2 453.06-21.33 450.61-23.45 447.06-23.45L447.06-23.45ZM470.31-21.15Q471.56-23.8 474.04-25.15 476.51-26.5 480.16-26.5L480.16-26.5 480.16-23.05 479.31-23.1Q475.16-23.1 472.81-20.55 470.46-18 470.46-13.4L470.46-13.4 470.46 0 466.91 0 466.91-26.3 470.31-26.3 470.31-21.15ZM506.31-26.3L509.81-26.3 498.11 0 494.46 0 482.81-26.3 486.51-26.3 496.36-3.9 506.31-26.3ZM514.81 0L514.81-26.3 518.36-26.3 518.36 0 514.81 0ZM516.61-32.05Q515.51-32.05 514.76-32.8 514.01-33.55 514.01-34.6L514.01-34.6Q514.01-35.6 514.76-36.35 515.51-37.1 516.61-37.1L516.61-37.1Q517.71-37.1 518.46-36.38 519.21-35.65 519.21-34.65L519.21-34.65Q519.21-33.55 518.46-32.8 517.71-32.05 516.61-32.05L516.61-32.05ZM539.15 0.25Q535.25 0.25 532.18-1.45 529.1-3.15 527.35-6.23 525.6-9.3 525.6-13.15L525.6-13.15Q525.6-17 527.35-20.05 529.1-23.1 532.18-24.8 535.25-26.5 539.15-26.5L539.15-26.5Q542.55-26.5 545.23-25.18 547.9-23.85 549.45-21.3L549.45-21.3 546.8-19.5Q545.5-21.45 543.5-22.43 541.5-23.4 539.15-23.4L539.15-23.4Q536.3-23.4 534.03-22.13 531.75-20.85 530.48-18.5 529.2-16.15 529.2-13.15L529.2-13.15Q529.2-10.1 530.48-7.78 531.75-5.45 534.03-4.17 536.3-2.9 539.15-2.9L539.15-2.9Q541.5-2.9 543.5-3.85 545.5-4.8 546.8-6.75L546.8-6.75 549.45-4.95Q547.9-2.4 545.2-1.07 542.5 0.25 539.15 0.25L539.15 0.25ZM567.2-2.9Q569.65-2.9 571.73-3.78 573.8-4.65 575.25-6.35L575.25-6.35 577.25-4.05Q575.5-1.95 572.9-0.85 570.3 0.25 567.15 0.25L567.15 0.25Q563.1 0.25 559.95-1.48 556.8-3.2 555.05-6.25 553.3-9.3 553.3-13.15L553.3-13.15Q553.3-17 554.98-20.05 556.65-23.1 559.6-24.8 562.55-26.5 566.3-26.5L566.3-26.5Q569.8-26.5 572.63-24.9 575.45-23.3 577.13-20.45 578.8-17.6 578.9-13.95L578.9-13.95 557.3-9.75Q558.3-6.55 560.92-4.73 563.55-2.9 567.2-2.9L567.2-2.9ZM566.3-23.45Q563.55-23.45 561.38-22.18 559.2-20.9 557.98-18.63 556.75-16.35 556.75-13.4L556.75-13.4Q556.75-12.65 556.8-12.3L556.8-12.3 575.35-15.9Q574.75-19.2 572.3-21.33 569.85-23.45 566.3-23.45L566.3-23.45Z" opacity="1" transform="matrix(1,0,0,1,0,0)" fill="#0080ff" class="slogan-text-1" data-fill-palette-color="secondary" id="text-1"></path></svg></g></svg></g></svg></g></svg></g></svg></g></svg></g></svg></g><g><path d="M220.402 0c68.262 0 123.6 55.338 123.6 123.6 0 68.262-55.338 123.6-123.6 123.6-32.834 0-62.678-12.803-84.812-33.689h7.721c20.717 17.78 47.649 28.523 77.091 28.522 29.441 0 56.374-10.743 77.091-28.522h1.225v-1.066c24.6-21.702 40.117-53.461 40.117-88.845 0-35.384-15.517-67.143-40.117-88.845v-1.066l-1.225 0c-20.717-17.78-47.649-28.523-77.091-28.522-29.441 0-56.374 10.743-77.091 28.522l-7.721 0c22.134-20.886 51.978-33.689 84.812-33.689z" fill="#0080ff" stroke="transparent" data-fill-palette-color="tertiary"></path></g></svg></g><defs></defs></svg><rect width="395.52" height="247.2" fill="none" stroke="none" visibility="hidden"></rect></g></svg></g></svg>